<svg width="37" height="34" viewBox="0 0 37 34" fill="none" xmlns="http://www.w3.org/2000/svg">
<path d="M0.598828 15V0.599999H2.48883L7.70883 11.43L12.8988 0.599999H14.8088V14.99H12.8288V5.14L8.17883 15H7.22883L2.56883 5.14V15H0.598828ZM23.0005 15.3C21.9272 15.3 20.9839 15.0667 20.1705 14.6C19.3639 14.1267 18.7339 13.47 18.2805 12.63C17.8339 11.7833 17.6105 10.8033 17.6105 9.69C17.6105 8.51 17.8305 7.48667 18.2705 6.62C18.7172 5.75333 19.3372 5.08333 20.1305 4.61C20.9239 4.13667 21.8472 3.9 22.9005 3.9C24.0005 3.9 24.9372 4.15667 25.7105 4.67C26.4839 5.17667 27.0605 5.9 27.4405 6.84C27.8272 7.78 27.9805 8.89667 27.9005 10.19H25.8105V9.43C25.7972 8.17667 25.5572 7.25 25.0905 6.65C24.6305 6.05 23.9272 5.75 22.9805 5.75C21.9339 5.75 21.1472 6.08 20.6205 6.74C20.0939 7.4 19.8305 8.35333 19.8305 9.6C19.8305 10.7867 20.0939 11.7067 20.6205 12.36C21.1472 13.0067 21.9072 13.33 22.9005 13.33C23.5539 13.33 24.1172 13.1833 24.5905 12.89C25.0705 12.59 25.4439 12.1633 25.7105 11.61L27.7605 12.26C27.3405 13.2267 26.7039 13.9767 25.8505 14.51C24.9972 15.0367 24.0472 15.3 23.0005 15.3ZM19.1505 10.19V8.56H26.8605V10.19H19.1505ZM36.9241 15C36.2441 15.1333 35.5775 15.19 34.9241 15.17C34.2708 15.15 33.6875 15.0233 33.1741 14.79C32.6608 14.5567 32.2741 14.19 32.0141 13.69C31.7808 13.2433 31.6541 12.79 31.6341 12.33C31.6208 11.8633 31.6141 11.3367 31.6141 10.75V1.2H33.7141V10.65C33.7141 11.0833 33.7175 11.46 33.7241 11.78C33.7375 12.1 33.8075 12.37 33.9341 12.59C34.1741 13.0033 34.5541 13.24 35.0741 13.3C35.6008 13.3533 36.2175 13.33 36.9241 13.23V15ZM29.5441 5.88V4.2H36.9241V5.88H29.5441ZM1.17773 33V22.2H3.03773V24.82L2.77773 24.48C2.91107 24.1333 3.0844 23.8167 3.29774 23.53C3.51107 23.2367 3.75773 22.9967 4.03774 22.81C4.31107 22.61 4.6144 22.4567 4.94773 22.35C5.28773 22.2367 5.6344 22.17 5.98774 22.15C6.34107 22.1233 6.68107 22.14 7.00774 22.2V24.16C6.6544 24.0667 6.26107 24.04 5.82773 24.08C5.40107 24.12 5.00773 24.2567 4.64773 24.49C4.30773 24.71 4.03773 24.9767 3.83773 25.29C3.6444 25.6033 3.5044 25.9533 3.41773 26.34C3.33107 26.72 3.28773 27.1233 3.28773 27.55V33H1.17773ZM9.71211 20.43V18.4H11.8021V20.43H9.71211ZM9.71211 33V22.2H11.8021V33H9.71211ZM20.0251 33.3C18.9184 33.3 17.9784 33.0533 17.2051 32.56C16.4317 32.0667 15.8384 31.39 15.4251 30.53C15.0184 29.67 14.8117 28.6933 14.8051 27.6C14.8117 26.4867 15.0251 25.5033 15.4451 24.65C15.8651 23.79 16.4651 23.1167 17.2451 22.63C18.0251 22.1433 18.9617 21.9 20.0551 21.9C21.2351 21.9 22.2417 22.1933 23.0751 22.78C23.9151 23.3667 24.4684 24.17 24.7351 25.19L22.6551 25.79C22.4484 25.1833 22.1084 24.7133 21.6351 24.38C21.1684 24.04 20.6317 23.87 20.0251 23.87C19.3384 23.87 18.7751 24.0333 18.3351 24.36C17.8951 24.68 17.5684 25.12 17.3551 25.68C17.1417 26.24 17.0317 26.88 17.0251 27.6C17.0317 28.7133 17.2851 29.6133 17.7851 30.3C18.2917 30.9867 19.0384 31.33 20.0251 31.33C20.6984 31.33 21.2417 31.1767 21.6551 30.87C22.0751 30.5567 22.3951 30.11 22.6151 29.53L24.7351 30.03C24.3817 31.0833 23.7984 31.8933 22.9851 32.46C22.1717 33.02 21.1851 33.3 20.0251 33.3ZM30.2855 33.3C29.4855 33.3 28.8155 33.1533 28.2755 32.86C27.7355 32.56 27.3255 32.1667 27.0455 31.68C26.7722 31.1867 26.6355 30.6467 26.6355 30.06C26.6355 29.5133 26.7322 29.0333 26.9255 28.62C27.1189 28.2067 27.4055 27.8567 27.7855 27.57C28.1655 27.2767 28.6322 27.04 29.1855 26.86C29.6655 26.72 30.2089 26.5967 30.8155 26.49C31.4222 26.3833 32.0589 26.2833 32.7255 26.19C33.3989 26.0967 34.0655 26.0033 34.7255 25.91L33.9655 26.33C33.9789 25.4833 33.7989 24.8567 33.4255 24.45C33.0589 24.0367 32.4255 23.83 31.5255 23.83C30.9589 23.83 30.4389 23.9633 29.9655 24.23C29.4922 24.49 29.1622 24.9233 28.9755 25.53L27.0255 24.93C27.2922 24.0033 27.7989 23.2667 28.5455 22.72C29.2989 22.1733 30.2989 21.9 31.5455 21.9C32.5122 21.9 33.3522 22.0667 34.0655 22.4C34.7855 22.7267 35.3122 23.2467 35.6455 23.96C35.8189 24.3133 35.9255 24.6867 35.9655 25.08C36.0055 25.4733 36.0255 25.8967 36.0255 26.35V33H34.1755V30.53L34.5355 30.85C34.0889 31.6767 33.5189 32.2933 32.8255 32.7C32.1389 33.1 31.2922 33.3 30.2855 33.3ZM30.6555 31.59C31.2489 31.59 31.7589 31.4867 32.1855 31.28C32.6122 31.0667 32.9555 30.7967 33.2155 30.47C33.4755 30.1433 33.6455 29.8033 33.7255 29.45C33.8389 29.13 33.9022 28.77 33.9155 28.37C33.9355 27.97 33.9455 27.65 33.9455 27.41L34.6255 27.66C33.9655 27.76 33.3655 27.85 32.8255 27.93C32.2855 28.01 31.7955 28.09 31.3555 28.17C30.9222 28.2433 30.5355 28.3333 30.1955 28.44C29.9089 28.54 29.6522 28.66 29.4255 28.8C29.2055 28.94 29.0289 29.11 28.8955 29.31C28.7689 29.51 28.7055 29.7533 28.7055 30.04C28.7055 30.32 28.7755 30.58 28.9155 30.82C29.0555 31.0533 29.2689 31.24 29.5555 31.38C29.8422 31.52 30.2089 31.59 30.6555 31.59Z" fill="black"/>
</svg>
